<svg xmlns="http://www.w3.org/2000/svg" viewBox="0 0 256 256">
  <rect width="256" height="256" rx="24" fill="#111016"/>
  <path d="M58 215c9-58 33-90 70-90s61 32 70 90z" fill="#191b22"/>
  <circle cx="128" cy="108" r="56" fill="#c9b9a4"/>
  <path d="M77 85c28-38 76-39 102 0-34-9-68-9-102 0z" fill="#f0f0ee"/>
  <path d="M66 95c19 10 40 16 62 16s43-6 62-16c-10 43-30 68-62 68s-52-25-62-68z" fill="#f3f0e7"/>
  <path d="M128 51v113" stroke="#17151a" stroke-width="8"/>
  <path d="M85 111h34M137 111h34" stroke="#6f51df" stroke-width="8" stroke-linecap="round"/>
  <circle cx="101" cy="112" r="8" fill="#d33c3c"/>
  <circle cx="155" cy="112" r="8" fill="#d33c3c"/>
  <circle cx="58" cy="177" r="17" fill="#f4f4ef"/>
  <circle cx="198" cy="177" r="17" fill="#1b1725" stroke="#7b5cff" stroke-width="5"/>
  <path d="M86 176c28 13 56 13 84 0" fill="none" stroke="#7667a8" stroke-width="7" stroke-linecap="round"/>
</svg>
